<svg width="111" height="103" viewBox="0 0 111 103" fill="none" xmlns="http://www.w3.org/2000/svg">
<path fill-rule="evenodd" clip-rule="evenodd" d="M26.7218 5.33742C23.4176 5.33742 21.1735 8.70186 22.4369 11.7615L31.6489 34.0716C33.0349 37.4283 32.2675 41.2912 29.7042 43.86L7.42859 66.1832C5.61761 67.9981 5.61761 70.9406 7.42859 72.7554L30.9243 96.3014C31.794 97.173 32.9735 97.6626 34.2034 97.6626H76.7971C78.027 97.6626 79.2065 97.173 80.0762 96.3014L103.572 72.7554C105.383 70.9406 105.383 67.9981 103.572 66.1832L81.1937 43.7572C78.699 41.2571 77.8993 37.5233 79.1506 34.2176L87.6989 11.6328C88.8498 8.59204 86.6083 5.33742 83.363 5.33742H26.7218ZM18.4376 13.42C15.9951 7.50458 20.3337 1 26.7218 1H83.363C89.6372 1 93.9709 7.29226 91.7457 13.1711L83.1974 35.7559C82.5502 37.4657 82.9638 39.397 84.2542 40.6901L106.632 63.1162C110.134 66.6249 110.134 72.3137 106.632 75.8224L83.1366 99.3685C81.4553 101.053 79.1749 102 76.7971 102H34.2034C31.8256 102 29.5452 101.053 27.8639 99.3685L4.36812 75.8224C0.866878 72.3137 0.866878 66.6249 4.36812 63.1162L26.6437 40.793C27.9696 39.4643 28.3665 37.4662 27.6496 35.73L18.4376 13.42Z" fill="black" stroke="black" stroke-width="2" stroke-linecap="round"/>
<path d="M23.377 18.9192C23.377 17.8902 24.1241 17.2041 24.8708 17.2041H87.2165C87.9632 17.2041 88.7103 17.8902 88.7103 18.9192C88.7103 19.9481 87.9632 20.6342 87.2165 20.6342H24.8708C24.1241 20.6342 23.377 19.9481 23.377 18.9192Z" fill="black" stroke="black" stroke-width="2"/>
<path d="M6 69.9621C6 68.9257 6.74547 68.2471 7.47481 68.2471H104.611C105.341 68.2471 106.086 68.9257 106.086 69.9621C106.086 70.9985 105.341 71.6772 104.611 71.6772H7.47481C6.74547 71.6772 6 70.9985 6 69.9621Z" fill="black" stroke="black" stroke-width="2"/>
</svg>
