<svg width="714" height="1425" viewBox="0 0 714 1425" fill="none" xmlns="http://www.w3.org/2000/svg">
<g opacity="0.15">
<path d="M0.572553 30.2797L-681.68 712.351L0.572553 1394.42L682.825 712.351L0.572553 30.2797Z" fill="#3D3D3D"/>
<path d="M1.91678 1425.45L-20.2322 1404.69L-5.00474 1389.47L-13.3107 1379.78L-7.77352 1374.24L1.91678 1382.55L10.2223 1374.24L15.7598 1379.78L7.45391 1389.47L22.6813 1404.69L1.91678 1425.45Z" fill="#A3A3A3"/>
<path d="M10.2223 51.2058L1.91678 42.9025L-7.77352 51.2058L-13.3107 45.6706L-5.00474 35.9828L-20.2322 22.1435L1.91678 0L22.6813 22.1435L7.45391 35.9828L15.7598 45.6706L10.2223 51.2058Z" fill="#A3A3A3"/>
<path d="M649.771 708.578L637.312 696.123L667.767 665.677L680.226 678.132L649.771 708.578ZM624.854 683.668L612.395 671.212L642.849 640.766L655.308 653.221L624.854 683.668ZM599.936 658.757L587.477 646.301L617.932 615.854L630.391 628.31L599.936 658.757ZM573.634 632.462L561.176 620.007L591.63 589.56L604.089 602.015L573.634 632.462ZM548.717 607.551L536.258 595.095L566.713 564.65L579.171 577.104L548.717 607.551ZM523.799 582.641L511.34 570.185L541.795 539.738L554.254 552.194L523.799 582.641ZM498.882 557.73L486.423 545.274L516.878 514.827L529.336 527.283L498.882 557.73ZM472.58 531.435L460.121 518.979L490.576 488.533L503.035 500.988L472.58 531.435ZM447.662 506.524L435.204 494.068L465.659 463.622L478.117 476.077L447.662 506.524ZM422.745 481.613L410.286 469.158L440.741 438.711L453.2 451.167L422.745 481.613ZM397.827 456.702L385.369 444.247L415.824 413.8L428.282 426.256L397.827 456.702ZM371.526 430.408L359.067 417.952L389.522 387.505L401.98 399.961L371.526 430.408ZM346.608 405.497L334.15 393.041L364.604 362.594L377.063 375.05L346.608 405.497ZM321.691 380.585L309.232 368.131L339.687 337.684L352.145 350.14L321.691 380.585ZM296.773 355.675L284.315 343.22L314.769 312.773L327.228 325.228L296.773 355.675ZM270.472 329.38L258.013 316.925L288.467 286.478L300.926 298.934L270.472 329.38ZM245.554 304.469L233.095 292.014L263.55 261.567L276.009 274.023L245.554 304.469ZM220.637 279.558L208.178 267.103L238.632 236.657L251.091 249.112L220.637 279.558ZM194.335 253.264L181.876 240.808L212.331 210.362L224.789 222.817L194.335 253.264ZM169.417 228.353L156.958 215.898L187.413 185.451L199.872 197.907L169.417 228.353ZM144.5 203.442L132.041 190.987L162.496 160.54L174.955 172.995L144.5 203.442ZM119.582 178.531L107.123 166.075L137.578 135.63L150.037 148.084L119.582 178.531ZM93.2803 152.236L80.8217 139.781L111.277 109.334L123.735 121.79L93.2803 152.236ZM68.363 127.325L55.9044 114.87L86.3588 84.4237L98.8179 96.8787L68.363 127.325ZM43.4457 102.415L30.9866 89.959L61.4415 59.5131L73.9002 71.968L43.4457 102.415ZM18.528 77.5041L6.06934 65.0483L36.5242 34.6016L48.9829 47.0573L18.528 77.5041Z" fill="#A3A3A3"/>
<path d="M692.685 733.487L677.457 719.647L669.152 727.952L662.23 721.032L671.92 712.728L662.23 704.425L669.152 697.505L677.457 707.193L692.685 691.969L713.449 712.728L692.685 733.487Z" fill="#A3A3A3"/>
<path d="M35.1399 1390.86L4.68506 1360.41L17.1437 1347.96L47.5986 1378.4L35.1399 1390.86ZM60.0572 1365.95L29.6028 1335.5L42.0615 1323.04L72.5159 1353.49L60.0572 1365.95ZM86.3589 1341.04L55.9045 1310.59L68.3632 1298.13L98.818 1328.58L86.3589 1341.04ZM111.277 1316.12L80.8218 1285.68L93.2805 1273.22L123.735 1303.67L111.277 1316.12ZM136.194 1289.83L105.74 1259.38L118.198 1246.93L148.653 1277.37L136.194 1289.83ZM161.112 1264.92L130.657 1234.47L143.116 1222.02L173.57 1252.46L161.112 1264.92ZM187.413 1240.01L156.959 1209.56L169.417 1197.11L199.872 1227.55L187.413 1240.01ZM212.331 1215.1L181.876 1184.65L194.335 1172.2L224.789 1202.64L212.331 1215.1ZM237.248 1188.8L206.794 1158.36L219.252 1145.9L249.707 1176.35L237.248 1188.8ZM262.166 1163.89L231.711 1133.45L244.17 1120.99L274.624 1151.44L262.166 1163.89ZM288.467 1138.98L258.013 1108.53L270.472 1096.08L300.926 1126.53L288.467 1138.98ZM313.385 1112.69L282.93 1082.24L295.389 1069.78L325.844 1100.23L313.385 1112.69ZM338.303 1087.78L307.848 1057.33L320.307 1044.87L350.761 1075.32L338.303 1087.78ZM364.604 1062.86L334.15 1032.42L346.608 1019.96L377.063 1050.41L364.604 1062.86ZM389.522 1037.95L359.067 1007.51L371.526 995.052L401.981 1025.5L389.522 1037.95ZM414.439 1011.66L383.984 981.212L396.444 968.756L426.898 999.203L414.439 1011.66ZM439.357 986.748L408.902 956.302L421.361 943.846L451.816 974.293L439.357 986.748ZM465.659 961.837L435.204 931.391L447.663 918.935L478.117 949.382L465.659 961.837ZM490.576 936.926L460.121 906.479L472.58 894.024L503.035 924.471L490.576 936.926ZM515.493 910.632L485.039 880.185L497.498 867.729L527.952 898.176L515.493 910.632ZM540.411 885.72L509.956 855.274L522.415 842.819L552.87 873.265L540.411 885.72ZM566.713 860.81L536.258 830.363L548.717 817.908L579.171 848.355L566.713 860.81ZM591.63 835.899L561.176 805.452L573.634 792.997L604.089 823.443L591.63 835.899ZM616.548 809.604L586.093 779.158L598.552 766.702L629.007 797.149L616.548 809.604ZM642.85 784.693L612.395 754.246L624.854 741.792L655.308 772.238L642.85 784.693ZM667.767 759.783L637.312 729.336L649.771 716.881L680.226 747.327L667.767 759.783Z" fill="#A3A3A3"/>
<path d="M1.91616 1231.7L-21.6172 1208.18L-5.00536 1191.57L-14.6957 1181.88L-7.77414 1176.35L1.91616 1184.65L10.2216 1176.35L17.1432 1181.88L8.83768 1191.57L24.0647 1208.18L1.91616 1231.7Z" fill="#A3A3A3"/>
<path d="M-7.77414 250.495L-14.6957 243.575L-5.00536 233.887L-21.6172 217.28L1.91616 193.753L24.0647 217.28L8.83768 233.887L17.1432 243.575L10.2216 250.495L1.91616 240.807L-7.77414 250.495Z" fill="#A3A3A3"/>
<path d="M450.431 708.575L436.588 694.735L469.811 661.521L483.655 675.361L450.431 708.575ZM424.13 682.281L410.287 668.441L443.51 635.226L457.353 649.066L424.13 682.281ZM396.443 654.602L382.6 640.762L415.824 607.548L429.667 621.387L396.443 654.602ZM370.141 628.307L356.298 614.467L389.522 581.253L403.365 595.092L370.141 628.307ZM342.455 600.628L328.612 586.789L361.836 553.574L375.679 567.413L342.455 600.628ZM316.154 574.333L302.311 560.493L335.534 527.28L349.377 541.119L316.154 574.333ZM288.467 546.654L274.624 532.815L307.848 499.601L321.691 513.44L288.467 546.654ZM262.166 520.36L248.323 506.521L281.546 473.306L295.389 487.145L262.166 520.36ZM234.48 492.681L220.637 478.842L253.86 445.627L267.703 459.466L234.48 492.681ZM208.178 466.386L194.335 452.547L227.558 419.333L241.401 433.172L208.178 466.386ZM180.492 438.707L166.649 424.868L199.872 391.654L213.715 405.493L180.492 438.707ZM154.19 412.413L140.347 398.574L173.57 365.359L187.413 379.198L154.19 412.413ZM126.504 384.734L112.661 370.895L145.884 337.68L159.727 351.52L126.504 384.734ZM100.202 358.439L86.3589 344.6L119.583 311.385L133.426 325.224L100.202 358.439ZM72.5159 330.761L58.6729 316.921L91.8965 283.706L105.74 297.546L72.5159 330.761ZM46.2142 304.465L32.3711 290.626L65.5944 257.412L79.4374 271.251L46.2142 304.465ZM18.5281 276.787L4.68506 262.947L37.9083 229.733L51.7513 243.573L18.5281 276.787Z" fill="#A3A3A3"/>
<path d="M497.497 736.257L480.885 719.65L471.195 729.338L464.273 722.418L473.963 712.73L464.273 703.043L471.195 696.124L480.885 705.811L497.497 689.204L519.646 712.73L497.497 736.257Z" fill="#A3A3A3"/>
<path d="M37.9083 1194.34L4.68506 1161.12L18.5281 1147.28L51.7513 1180.5L37.9083 1194.34ZM65.5944 1168.04L32.3711 1134.83L46.2142 1120.99L79.4374 1154.2L65.5944 1168.04ZM91.8965 1140.36L58.6729 1107.15L72.5159 1093.31L105.74 1126.53L91.8965 1140.36ZM119.583 1114.07L86.3589 1080.86L100.202 1067.02L133.426 1100.23L119.583 1114.07ZM145.884 1086.39L112.661 1053.18L126.504 1039.34L159.727 1072.55L145.884 1086.39ZM173.57 1060.1L140.347 1026.88L154.19 1013.04L187.413 1046.26L173.57 1060.1ZM199.872 1032.42L166.649 999.203L180.492 985.364L213.715 1018.58L199.872 1032.42ZM227.558 1006.12L194.335 972.909L208.178 959.069L241.401 992.283L227.558 1006.12ZM253.86 978.444L220.637 945.23L234.48 931.391L267.703 964.605L253.86 978.444ZM281.546 952.15L248.323 918.935L262.166 905.095L295.389 938.31L281.546 952.15ZM307.848 924.471L274.624 891.256L288.467 877.417L321.691 910.632L307.848 924.471ZM335.534 898.176L302.311 864.961L316.154 851.122L349.377 884.336L335.534 898.176ZM361.836 870.497L328.612 837.282L342.455 823.443L375.679 856.658L361.836 870.497ZM389.522 844.202L356.298 810.988L370.141 797.149L403.365 830.363L389.522 844.202ZM415.824 816.523L382.6 783.309L396.443 769.47L429.667 802.684L415.824 816.523ZM443.51 790.229L410.287 757.014L424.13 743.175L457.353 776.39L443.51 790.229ZM469.811 762.55L436.588 729.335L450.431 715.496L483.655 748.711L469.811 762.55Z" fill="#A3A3A3"/>
<path d="M1.17687 1018.73L307.554 712.438L1.17687 406.142L-305.2 712.438L1.17687 1018.73Z" fill="#A3A3A3"/>
</g>
</svg>
