<svg width="136" height="58" viewBox="0 0 136 58" fill="none" xmlns="http://www.w3.org/2000/svg">
<g filter="url(#filter0_d_101_216)">
<path d="M21.296 37.816C18.192 37.816 15.376 37.096 12.848 35.656C10.352 34.184 8.368 32.184 6.896 29.656C5.456 27.096 4.736 24.264 4.736 21.16V20.248C4.736 17.112 5.456 14.264 6.896 11.704C8.336 9.112 10.304 7.08 12.8 5.608C15.296 4.136 18.064 3.4 21.104 3.4C24.176 3.4 26.96 4.136 29.456 5.608C31.952 7.08 33.92 9.112 35.36 11.704C36.8 14.264 37.52 17.112 37.52 20.248V21.16C37.52 24.328 36.816 27.176 35.408 29.704C34 32.232 32.064 34.216 29.6 35.656C27.136 37.096 24.368 37.816 21.296 37.816ZM21.152 35.128C23.68 35.128 25.968 34.52 28.016 33.304C30.064 32.088 31.68 30.424 32.864 28.312C34.048 26.168 34.64 23.784 34.64 21.16V20.248C34.64 17.592 34.032 15.192 32.816 13.048C31.632 10.872 30 9.176 27.92 7.96C25.872 6.712 23.584 6.088 21.056 6.088C18.56 6.088 16.288 6.712 14.24 7.96C12.192 9.208 10.576 10.92 9.392 13.096C8.208 15.24 7.616 17.624 7.616 20.248V21.16C7.616 23.784 8.208 26.168 9.392 28.312C10.576 30.424 12.192 32.088 14.24 33.304C16.32 34.52 18.624 35.128 21.152 35.128ZM53.4121 12.52C54.3721 12.52 55.3321 12.664 56.2921 12.952V15.64C55.3641 15.416 54.4361 15.304 53.5081 15.304C51.8761 15.304 50.5481 15.704 49.5241 16.504C48.5001 17.304 47.5881 18.44 46.7881 19.912V37H43.9081V20.2C43.9081 17.672 43.2361 15.816 41.8921 14.632L43.8121 12.712C44.3881 13.064 44.9321 13.592 45.4441 14.296C45.9561 15 46.3241 15.784 46.5481 16.648C47.4441 15.176 48.3401 14.168 49.2361 13.624C50.3561 12.888 51.7481 12.52 53.4121 12.52ZM61.2931 12.904C61.2931 8.904 61.9171 5.992 63.1651 4.168C64.4451 2.312 66.4611 1.384 69.2131 1.384C71.3891 1.384 73.1011 2.024 74.3491 3.304C75.5971 4.584 76.2211 6.344 76.2211 8.584C76.2211 11.304 75.3251 13.448 73.5331 15.016C71.7731 16.552 69.4211 17.24 66.4771 17.08L64.1731 16.936V24.904H71.2771V27.496H64.1731V49.48H61.2931V12.904ZM66.4771 14.584C68.6211 14.584 70.3011 14.056 71.5171 13C72.7331 11.912 73.3411 10.424 73.3411 8.536C73.3411 7.064 72.9731 5.944 72.2371 5.176C71.5011 4.376 70.4611 3.976 69.1171 3.976C67.4211 3.976 66.1731 4.696 65.3731 6.136C64.5731 7.544 64.1731 9.752 64.1731 12.76V14.584H66.4771ZM88.2781 37.48C85.8781 37.48 83.8461 36.984 82.1821 35.992C80.5181 35 79.2541 33.64 78.3901 31.912C77.5581 30.152 77.1421 28.168 77.1421 25.96C77.1421 23.784 77.5421 21.672 78.3421 19.624C79.1741 17.576 80.4061 15.896 82.0381 14.584C83.7021 13.272 85.7181 12.616 88.0861 12.616C89.6541 12.616 91.1101 12.92 92.4541 13.528C93.7981 14.136 94.8541 15 95.6221 16.12C96.4221 17.24 96.8221 18.536 96.8221 20.008C96.8221 22.376 95.8141 24.216 93.7981 25.528C91.7821 26.808 88.9981 27.432 85.4461 27.4L80.1661 27.352C80.4541 29.816 81.2701 31.688 82.6141 32.968C83.9901 34.248 85.8781 34.888 88.2781 34.888C89.7181 34.888 91.0461 34.696 92.2621 34.312C93.5101 33.896 94.7101 33.272 95.8621 32.44L97.3021 34.36C96.0861 35.32 94.6941 36.088 93.1261 36.664C91.5901 37.208 89.9741 37.48 88.2781 37.48ZM86.0701 24.904C91.3181 24.904 93.9421 23.256 93.9421 19.96C93.9421 18.36 93.3821 17.176 92.2621 16.408C91.1741 15.608 89.8301 15.208 88.2301 15.208C86.4381 15.208 84.9181 15.72 83.6701 16.744C82.4541 17.768 81.5421 19.032 80.9341 20.536C80.3261 22.04 80.0221 23.496 80.0221 24.904H86.0701ZM111.031 37.48C109.431 37.48 107.879 37.384 106.375 37.192C104.807 37 103.623 36.776 102.823 36.52V2.152H105.703V16.216C106.503 15 107.543 14.104 108.823 13.528C110.135 12.92 111.527 12.616 112.999 12.616C115.015 12.616 116.791 13.144 118.327 14.2C119.895 15.256 121.095 16.728 121.927 18.616C122.791 20.504 123.223 22.648 123.223 25.048C123.223 28.664 122.215 31.64 120.199 33.976C118.215 36.312 115.159 37.48 111.031 37.48ZM110.983 34.888C114.343 34.888 116.743 33.992 118.183 32.2C119.623 30.376 120.343 28.008 120.343 25.096C120.343 23.016 120.007 21.24 119.335 19.768C118.695 18.264 117.799 17.128 116.647 16.36C115.527 15.592 114.263 15.208 112.855 15.208C111.223 15.208 109.703 15.704 108.295 16.696C106.727 17.784 105.863 19.304 105.703 21.256V34.456L108.247 34.744C109.079 34.84 109.991 34.888 110.983 34.888ZM138.443 12.52C139.403 12.52 140.363 12.664 141.323 12.952V15.64C140.395 15.416 139.467 15.304 138.539 15.304C136.907 15.304 135.579 15.704 134.555 16.504C133.531 17.304 132.619 18.44 131.819 19.912V37H128.939V20.2C128.939 17.672 128.267 15.816 126.923 14.632L128.843 12.712C129.419 13.064 129.963 13.592 130.475 14.296C130.987 15 131.355 15.784 131.579 16.648C132.475 15.176 133.371 14.168 134.267 13.624C135.387 12.888 136.779 12.52 138.443 12.52ZM154.747 37.48C152.347 37.48 150.315 36.984 148.651 35.992C146.987 35 145.723 33.64 144.859 31.912C144.027 30.152 143.611 28.168 143.611 25.96C143.611 23.784 144.011 21.672 144.811 19.624C145.643 17.576 146.875 15.896 148.507 14.584C150.171 13.272 152.187 12.616 154.555 12.616C156.123 12.616 157.579 12.92 158.923 13.528C160.267 14.136 161.323 15 162.091 16.12C162.891 17.24 163.291 18.536 163.291 20.008C163.291 22.376 162.283 24.216 160.267 25.528C158.251 26.808 155.467 27.432 151.915 27.4L146.635 27.352C146.923 29.816 147.739 31.688 149.083 32.968C150.459 34.248 152.347 34.888 154.747 34.888C156.187 34.888 157.515 34.696 158.731 34.312C159.979 33.896 161.179 33.272 162.331 32.44L163.771 34.36C162.555 35.32 161.163 36.088 159.595 36.664C158.059 37.208 156.443 37.48 154.747 37.48ZM152.539 24.904C157.787 24.904 160.411 23.256 160.411 19.96C160.411 18.36 159.851 17.176 158.731 16.408C157.643 15.608 156.299 15.208 154.699 15.208C152.907 15.208 151.387 15.72 150.139 16.744C148.923 17.768 148.011 19.032 147.403 20.536C146.795 22.04 146.491 23.496 146.491 24.904H152.539ZM179.084 12.52C180.044 12.52 181.004 12.664 181.964 12.952V15.64C181.036 15.416 180.108 15.304 179.18 15.304C177.548 15.304 176.22 15.704 175.196 16.504C174.172 17.304 173.26 18.44 172.46 19.912V37H169.58V20.2C169.58 17.672 168.908 15.816 167.564 14.632L169.484 12.712C170.06 13.064 170.604 13.592 171.116 14.296C171.628 15 171.996 15.784 172.22 16.648C173.116 15.176 174.012 14.168 174.908 13.624C176.028 12.888 177.42 12.52 179.084 12.52ZM189.605 32.968C189.605 33.416 189.749 33.8 190.037 34.12C190.357 34.408 190.725 34.552 191.141 34.552C191.781 34.552 192.245 34.28 192.533 33.736L194.645 35.32C194.389 35.864 193.941 36.328 193.301 36.712C192.661 37.064 191.941 37.24 191.141 37.24C189.861 37.24 188.805 36.84 187.973 36.04C187.141 35.24 186.725 34.2 186.725 32.92V13H189.605V32.968ZM187.205 9.208L191.525 0.567997L194.117 1.96L188.837 10.264L187.205 9.208ZM206.808 37.48C204.6 37.48 202.712 36.92 201.144 35.8C199.576 34.68 198.392 33.192 197.592 31.336C196.792 29.48 196.392 27.432 196.392 25.192C196.392 22.728 196.872 20.552 197.832 18.664C198.792 16.744 200.168 15.256 201.96 14.2C203.752 13.144 205.848 12.616 208.248 12.616C208.984 12.616 209.912 12.664 211.032 12.76C212.152 12.824 213.144 12.92 214.008 13.048H216.888V32.872C216.888 33.512 217.032 34.008 217.32 34.36C217.64 34.68 218.024 34.84 218.472 34.84C219.048 34.84 219.512 34.568 219.864 34.024L221.928 35.656C221.448 36.328 220.904 36.792 220.296 37.048C219.72 37.336 219.048 37.48 218.28 37.48C217.16 37.48 216.168 37.096 215.304 36.328C214.472 35.56 214.056 34.632 214.056 33.544C213.288 34.824 212.28 35.8 211.032 36.472C209.784 37.144 208.376 37.48 206.808 37.48ZM206.856 34.888C208.296 34.888 209.592 34.536 210.744 33.832C211.896 33.128 212.76 32.2 213.336 31.048C213.784 30.12 214.008 29.096 214.008 27.976V15.4L210.84 15.304L208.056 15.208C205.144 15.208 202.952 16.12 201.48 17.944C200.008 19.768 199.272 22.152 199.272 25.096C199.272 27.816 199.912 30.136 201.192 32.056C202.504 33.944 204.392 34.888 206.856 34.888Z" fill="black"/>
</g>
<defs>
<filter id="filter0_d_101_216" x="0.736328" y="0.568359" width="225.191" height="56.9121" filterUnits="userSpaceOnUse" color-interpolation-filters="sRGB">
<feFlood flood-opacity="0" result="BackgroundImageFix"/>
<feColorMatrix in="SourceAlpha" type="matrix" values="0 0 0 0 0 0 0 0 0 0 0 0 0 0 0 0 0 0 127 0" result="hardAlpha"/>
<feOffset dy="4"/>
<feGaussianBlur stdDeviation="2"/>
<feComposite in2="hardAlpha" operator="out"/>
<feColorMatrix type="matrix" values="0 0 0 0 0 0 0 0 0 0 0 0 0 0 0 0 0 0 0.25 0"/>
<feBlend mode="normal" in2="BackgroundImageFix" result="effect1_dropShadow_101_216"/>
<feBlend mode="normal" in="SourceGraphic" in2="effect1_dropShadow_101_216" result="shape"/>
</filter>
</defs>
</svg>
